<svg width="354" height="354" viewBox="0 0 354 354" fill="none" xmlns="http://www.w3.org/2000/svg">
<path d="M226.512 205.706L205.714 226.51L236.92 257.706L257.717 236.903L226.512 205.706Z" fill="#B3E5FC"/>
<path d="M236.928 262.924L200.524 226.521L226.521 200.517L262.925 236.92L236.928 262.924ZM210.923 226.521L236.928 252.526L252.526 236.92L226.521 210.916L210.923 226.521Z" fill="#0277BD"/>
<path d="M333.127 312.33L312.33 333.127C309.454 336.003 304.807 336.003 301.931 333.127L229.132 260.328C226.257 257.453 226.257 252.805 229.132 249.93L249.93 229.125C252.805 226.257 257.453 226.257 260.329 229.125L333.127 301.931C336.003 304.799 336.003 309.454 333.127 312.33Z" fill="#8C9EFF"/>
<path d="M307.131 338.952C304.307 338.952 301.475 337.878 299.328 335.731L226.529 262.932C222.227 258.63 222.227 251.636 226.529 247.334L247.326 226.529C251.621 222.234 258.615 222.241 262.925 226.529L335.724 299.335C340.026 303.637 340.026 310.638 335.724 314.94L314.926 335.738C312.779 337.878 309.955 338.952 307.131 338.952ZM255.129 230.647C254.188 230.647 253.247 231.007 252.526 231.721L231.728 252.526C230.294 253.96 230.294 256.291 231.728 257.725L304.527 330.524C305.961 331.958 308.293 331.958 309.727 330.524L330.524 309.726C331.958 308.292 331.958 305.961 330.524 304.52L257.725 231.713C257.005 231.007 256.071 230.647 255.129 230.647Z" fill="#0277BD"/>
<path d="M321.324 304.196C320.383 304.196 319.441 303.836 318.721 303.122L261.52 245.922C260.086 244.487 260.086 242.156 261.52 240.722C262.954 239.288 265.285 239.288 266.719 240.722L323.92 297.923C325.354 299.357 325.354 301.688 323.92 303.122C323.199 303.836 322.258 304.196 321.324 304.196Z" fill="#E8EAF6"/>
<path d="M136.72 254.386C201.705 254.386 254.387 201.705 254.387 136.72C254.387 71.7341 201.705 19.0529 136.72 19.0529C71.7344 19.0529 19.0532 71.7341 19.0532 136.72C19.0532 201.705 71.7344 254.386 136.72 254.386Z" fill="#E1F5FE"/>
<path d="M136.72 258.063C69.8115 258.063 15.376 203.628 15.376 136.72C15.376 69.8114 69.8115 15.3758 136.72 15.3758C203.628 15.3758 258.063 69.8114 258.063 136.72C258.063 163.952 249.253 189.684 232.574 211.136C231.316 212.74 229.007 213.019 227.419 211.776C225.815 210.533 225.521 208.224 226.771 206.621C242.429 186.478 250.709 162.305 250.709 136.72C250.709 73.8635 199.576 22.73 136.72 22.73C73.8637 22.73 22.7301 73.8635 22.7301 136.72C22.7301 199.576 73.8637 250.709 136.72 250.709C166.335 250.709 194.406 239.398 215.74 218.866C217.196 217.468 219.528 217.498 220.94 218.969C222.344 220.432 222.308 222.763 220.837 224.168C198.127 246.025 168.254 258.063 136.72 258.063Z" fill="#0277BD"/>
<path d="M136.281 235.562C191.113 235.562 235.562 191.113 235.562 136.281C235.562 81.4497 191.113 37 136.281 37C81.4497 37 37 81.4497 37 136.281C37 191.113 81.4497 235.562 136.281 235.562Z" fill="#B3E5FC"/>
<path d="M136.72 239.678C79.9454 239.678 33.7612 193.494 33.7612 136.72C33.7612 79.9454 79.9454 33.7612 136.72 33.7612C193.494 33.7612 239.678 79.9454 239.678 136.72C239.678 193.494 193.494 239.678 136.72 239.678ZM136.72 41.1154C84.0049 41.1154 41.1154 84.0049 41.1154 136.72C41.1154 189.434 84.0049 232.324 136.72 232.324C189.434 232.324 232.324 189.434 232.324 136.72C232.324 84.0049 189.434 41.1154 136.72 41.1154Z" fill="white"/>
<path d="M130.3 63.4426C128.402 63.4426 126.792 61.9865 126.645 60.0671C126.483 58.0447 127.991 56.265 130.006 56.1032C132.227 55.9193 134.455 55.8237 136.72 55.8237C138.75 55.8237 140.397 57.4711 140.397 59.5008C140.397 61.5306 138.75 63.1779 136.72 63.1779C134.661 63.1779 132.624 63.2661 130.609 63.4279C130.498 63.4353 130.403 63.4426 130.3 63.4426Z" fill="white"/>
<path d="M59.5008 140.397C57.4711 140.397 55.8237 138.749 55.8237 136.72C55.8237 102.559 77.4303 71.922 109.605 60.4789C111.524 59.7876 113.627 60.7951 114.304 62.7146C114.988 64.6267 113.988 66.73 112.076 67.4139C82.8282 77.8127 63.1779 105.663 63.1779 136.72C63.1779 138.749 61.5306 140.397 59.5008 140.397Z" fill="white"/>
<g clip-path="url(#clip0_23_63)">
<path d="M193.398 176.567L173.104 196.164L140.142 158.271L156.584 142.394L193.398 176.567Z" fill="#4DD0E2"/>
<path d="M147.148 132.622L130.706 148.5L135.243 153.198L151.685 137.32L147.148 132.622Z" fill="#4DD0E2"/>
<path d="M148.913 139.996L138.014 150.521L142.914 155.595L153.812 145.07L148.913 139.996Z" fill="#FFB54D"/>
<path d="M188.653 181.149L177.754 191.673L182.654 196.747L193.553 186.222L188.653 181.149Z" fill="#FFB54D"/>
<path d="M105.11 117.294L100.412 121.83L109.485 131.226L114.183 126.689L105.11 117.294Z" fill="#4DD0E2"/>
<path d="M104.364 107.12L99.666 111.657L114.183 126.689L118.881 122.153L104.364 107.12Z" fill="#4DD0E2"/>
<path d="M105.432 98.8254L100.734 103.362L118.881 122.153L123.578 117.616L105.432 98.8254Z" fill="#4DD0E2"/>
<path d="M115.574 99.9261L110.876 104.463L123.578 117.616L128.276 113.08L115.574 99.9261Z" fill="#4DD0E2"/>
<path d="M134.8 99.1533L130.103 103.69L139.176 113.085L143.873 108.549L134.8 99.1533Z" fill="#4DD0E2"/>
<path d="M150.906 128.993L128.357 150.768L114.384 136.299L133.175 118.153L138.982 124.166L144.555 122.416L150.906 128.993Z" fill="#4DD0E2"/>
<path d="M160.296 162.595C162.164 160.791 162.216 157.814 160.412 155.946C158.608 154.078 155.631 154.026 153.763 155.83C151.895 157.634 151.843 160.611 153.647 162.479C155.451 164.347 158.428 164.399 160.296 162.595Z" fill="white"/>
<path d="M106.876 121.943L104.997 123.758L107.719 126.576L109.598 124.762L106.876 121.943Z" fill="white"/>
<path d="M111.735 108.172L109.856 109.987L112.578 112.806L114.457 110.991L111.735 108.172Z" fill="white"/>
<path d="M119.154 106.454L117.275 108.269L119.997 111.088L121.876 109.273L119.154 106.454Z" fill="white"/>
<path d="M108.852 114.588L106.973 116.403L109.695 119.221L111.574 117.406L108.852 114.588Z" fill="white"/>
<path d="M136.567 103.802L134.688 105.617L137.409 108.436L139.288 106.621L136.567 103.802Z" fill="white"/>
<path d="M134.849 96.3829L127.332 103.641L139.127 115.855L141.476 113.587L143.133 115.303L142.703 120.944L139.55 121.934L133.224 115.383L130.875 117.651L128.697 115.396L131.046 113.128L115.622 97.1559L110.924 101.692L105.481 96.0551L97.9641 103.314L101.593 107.072L96.8957 111.608L102.34 117.245L97.642 121.782L109.437 133.996L111.786 131.728L113.963 133.983L111.614 136.251L128.309 153.539L130.658 151.27L135.194 155.968L137.966 153.292L140.144 155.546L137.443 158.154L172.98 199.007L177.706 194.444L182.606 199.517L196.323 186.27L191.424 181.197L196.247 176.539L156.558 139.696L153.861 142.3L151.683 140.045L154.455 137.368L149.919 132.671L153.677 129.041L146.576 121.688L147.174 113.847L144.295 110.865L146.644 108.597L134.849 96.3829ZM128.056 120.373L126.177 122.188L124 119.933L125.879 118.118L128.056 120.373ZM121.181 122.655L123.359 124.91L121.48 126.724L119.302 124.469L121.181 122.655ZM125.506 113.031L123.627 114.846L113.646 104.511L115.525 102.696L125.506 113.031ZM105.384 101.595L120.808 117.568L118.929 119.382L103.505 103.41L105.384 101.595ZM104.315 109.89L116.11 122.104L114.231 123.919L102.436 111.705L104.315 109.89ZM103.182 121.879L105.061 120.064L111.413 126.641L109.533 128.455L103.182 121.879ZM114.604 129.006L116.483 127.191L118.661 129.446L116.782 131.261L114.604 129.006ZM190.782 186.174L182.702 193.977L180.525 191.722L188.605 183.919L190.782 186.174ZM158.935 161.186C157.847 162.237 156.107 162.206 155.057 161.118C154.006 160.03 154.036 158.291 155.124 157.24C156.212 156.189 157.952 156.22 159.003 157.308C160.053 158.395 160.023 160.135 158.935 161.186ZM190.548 176.595L183.299 183.595L162.862 162.432C164.236 159.939 163.899 156.737 161.821 154.586C159.27 151.944 155.045 151.87 152.402 154.421C149.76 156.973 149.687 161.198 152.238 163.84C154.316 165.992 157.504 166.44 160.043 165.154L180.481 186.317L173.227 193.322L142.841 158.389L156.611 145.092L190.548 176.595ZM151.042 145.022L142.962 152.825L140.784 150.57L148.865 142.767L151.042 145.022ZM148.914 137.272L135.291 150.428L133.476 148.549L147.1 135.393L148.914 137.272ZM148.136 128.945L128.406 147.998L117.155 136.348L133.127 120.923L138.414 126.398L143.987 124.648L148.136 128.945ZM132.873 103.738L134.752 101.923L141.103 108.5L139.224 110.315L132.873 103.738Z" fill="black"/>
</g>
<defs>
<clipPath id="clip0_23_63">
<rect width="128" height="128" fill="white" transform="translate(58.5034 141.42) rotate(-44)"/>
</clipPath>
</defs>
</svg>
