<svg width="354" height="354" viewBox="0 0 354 354" fill="none" xmlns="http://www.w3.org/2000/svg">
<path d="M226.512 205.706L205.714 226.51L236.92 257.706L257.717 236.903L226.512 205.706Z" fill="#B3E5FC"/>
<path d="M236.927 262.924L200.524 226.521L226.521 200.517L262.924 236.92L236.927 262.924ZM210.923 226.521L236.927 252.526L252.525 236.92L226.521 210.916L210.923 226.521Z" fill="#0277BD"/>
<path d="M333.127 312.33L312.329 333.127C309.454 336.003 304.806 336.003 301.931 333.127L229.132 260.328C226.256 257.453 226.256 252.805 229.132 249.93L249.929 229.125C252.805 226.257 257.453 226.257 260.328 229.125L333.127 301.931C336.002 304.799 336.002 309.454 333.127 312.33Z" fill="#8C9EFF"/>
<path d="M307.13 338.952C304.306 338.952 301.475 337.878 299.327 335.731L226.528 262.932C222.226 258.63 222.226 251.636 226.528 247.334L247.326 226.529C251.621 222.234 258.615 222.241 262.924 226.529L335.723 299.335C340.025 303.637 340.025 310.638 335.723 314.94L314.925 335.738C312.778 337.878 309.954 338.952 307.13 338.952ZM255.129 230.647C254.187 230.647 253.246 231.007 252.525 231.721L231.728 252.526C230.294 253.96 230.294 256.291 231.728 257.725L304.527 330.524C305.961 331.958 308.292 331.958 309.726 330.524L330.524 309.726C331.958 308.292 331.958 305.961 330.524 304.52L257.725 231.713C257.004 231.007 256.07 230.647 255.129 230.647Z" fill="#0277BD"/>
<path d="M321.324 304.196C320.382 304.196 319.441 303.836 318.72 303.122L261.52 245.922C260.086 244.488 260.086 242.156 261.52 240.722C262.954 239.288 265.285 239.288 266.719 240.722L323.92 297.923C325.354 299.357 325.354 301.688 323.92 303.122C323.199 303.836 322.258 304.196 321.324 304.196Z" fill="#E8EAF6"/>
<path d="M136.719 254.386C201.705 254.386 254.386 201.705 254.386 136.72C254.386 71.7341 201.705 19.0529 136.719 19.0529C71.7339 19.0529 19.0527 71.7341 19.0527 136.72C19.0527 201.705 71.7339 254.386 136.719 254.386Z" fill="#E1F5FE"/>
<path d="M136.719 258.063C69.8113 258.063 15.3757 203.628 15.3757 136.72C15.3757 69.8114 69.8113 15.3758 136.719 15.3758C203.628 15.3758 258.063 69.8114 258.063 136.72C258.063 163.952 249.253 189.684 232.574 211.136C231.316 212.74 229.007 213.019 227.418 211.776C225.815 210.533 225.521 208.224 226.771 206.621C242.428 186.478 250.709 162.305 250.709 136.72C250.709 73.8635 199.576 22.73 136.719 22.73C73.8634 22.73 22.7299 73.8635 22.7299 136.72C22.7299 199.576 73.8634 250.709 136.719 250.709C166.335 250.709 194.406 239.398 215.74 218.866C217.196 217.468 219.527 217.498 220.939 218.969C222.344 220.432 222.307 222.763 220.836 224.168C198.127 246.025 168.254 258.063 136.719 258.063Z" fill="#0277BD"/>
<path d="M136.719 236.001C191.551 236.001 236.001 191.551 236.001 136.72C236.001 81.888 191.551 37.4383 136.719 37.4383C81.888 37.4383 37.4382 81.888 37.4382 136.72C37.4382 191.551 81.888 236.001 136.719 236.001Z" fill="#B3E5FC"/>
<path d="M136.72 239.678C79.9454 239.678 33.7612 193.494 33.7612 136.72C33.7612 79.9454 79.9454 33.7612 136.72 33.7612C193.494 33.7612 239.678 79.9454 239.678 136.72C239.678 193.494 193.494 239.678 136.72 239.678ZM136.72 41.1154C84.0049 41.1154 41.1154 84.0049 41.1154 136.72C41.1154 189.434 84.0049 232.324 136.72 232.324C189.434 232.324 232.324 189.434 232.324 136.72C232.324 84.0049 189.434 41.1154 136.72 41.1154Z" fill="white"/>
<path d="M130.299 63.4427C128.402 63.4427 126.791 61.9865 126.644 60.0671C126.482 58.0447 127.99 56.265 130.005 56.1032C132.226 55.9193 134.454 55.8237 136.719 55.8237C138.749 55.8237 140.397 57.4711 140.397 59.5008C140.397 61.5306 138.749 63.1779 136.719 63.1779C134.66 63.1779 132.623 63.2662 130.608 63.4279C130.498 63.4353 130.402 63.4427 130.299 63.4427Z" fill="white"/>
<path d="M59.5008 140.397C57.4711 140.397 55.8237 138.749 55.8237 136.72C55.8237 102.559 77.4303 71.922 109.605 60.4789C111.524 59.7876 113.627 60.7952 114.304 62.7146C114.988 64.6267 113.988 66.73 112.076 67.4139C82.8282 77.8127 63.1779 105.663 63.1779 136.72C63.1779 138.749 61.5306 140.397 59.5008 140.397Z" fill="white"/>
</svg>
